Coordinates
version=1
nRows=13
nColumns=40
inDegrees=yes

Units are S.I. units (second, meters, Newtons, ...)
If the header above contains a line with 'inDegrees', this indicates whether rotational values are in degrees (yes) or radians (no).

endheader
time	pelvis_tilt	pelvis_list	pelvis_rotation	pelvis_tx	pelvis_ty	pelvis_tz	hip_flexion_r	hip_adduction_r	hip_rotation_r	knee_angle_r	knee_angle_r_beta	ankle_angle_r	subtalar_angle_r	mtp_angle_r	hip_flexion_l	hip_adduction_l	hip_rotation_l	knee_angle_l	knee_angle_l_beta	ankle_angle_l	subtalar_angle_l	mtp_angle_l	lumbar_extension	lumbar_bending	lumbar_rotation	arm_flex_r	arm_add_r	arm_rot_r	elbow_flex_r	pro_sup_r	wrist_flex_r	wrist_dev_r	arm_flex_l	arm_add_l	arm_rot_l	elbow_flex_l	pro_sup_l	wrist_flex_l	wrist_dev_l
      0.00000000	    -89.31435632	     75.27108191	    -88.47614733	      0.85001923	      0.27580466	      0.57302372	     44.86485844	    -10.24426145	      0.00000000	     59.94553664	      1.04624699	     -5.05914942	      0.00000000	      0.00000000	     44.86485844	    -10.24426145	      0.00000000	     59.94553664	      1.04624699	     -5.05914942	      0.00000000	      0.00000000	    -24.19577726	      1.15853511	     -1.14581419	      2.16991002	    -27.52255097	     27.33474349	     91.76355919	     87.46145860	      0.00000000	      0.00000000	     -0.19282279	    -27.47744621	     21.75198410	     80.38993231	     89.01986100	      0.00000000	      0.00000000
      0.00500000	    -89.32740570	     75.46829905	    -88.45010988	      0.85017099	      0.27573539	      0.57264801	     44.89337329	    -10.14168899	      0.00000000	     59.95513314	      1.04641448	     -5.03197735	      0.00000000	      0.00000000	     44.89337329	    -10.14168899	      0.00000000	     59.95513314	      1.04641448	     -5.03197735	      0.00000000	      0.00000000	    -23.98437576	      1.16657231	     -1.14107810	      2.14777858	    -27.53357533	     27.33789948	     91.76292942	     87.36334801	      0.00000000	      0.00000000	     -0.16938083	    -27.47260399	     21.79044476	     80.34210199	     89.02484535	      0.00000000	      0.00000000
      0.01000000	    -89.31782195	     75.26977481	    -88.46293412	      0.85008549	      0.27571737	      0.57304273	     44.91217301	    -10.09141827	      0.00000000	     59.96174381	      1.04652985	     -5.01945474	      0.00000000	      0.00000000	     44.91217301	    -10.09141827	      0.00000000	     59.96174381	      1.04652985	     -5.01945474	      0.00000000	      0.00000000	    -24.19565589	      1.16254107	     -1.14785784	      2.21319549	    -27.52187375	     27.44090802	     91.74777144	     87.61565252	      0.00000000	      0.00000000	     -0.18775358	    -27.51182623	     21.81045108	     80.40542818	     89.01916468	      0.00000000	      0.00000000
      0.01500000	    -89.37332202	     74.38579754	    -88.81949777	      0.84866844	      0.27605822	      0.57502487	     44.92637774	    -10.06427761	      0.00000000	     59.96697001	      1.04662107	     -5.01325492	      0.00000000	      0.00000000	     44.92637774	    -10.06427761	      0.00000000	     59.96697001	      1.04662107	     -5.01325492	      0.00000000	      0.00000000	    -25.01063462	      1.05481284	     -0.74265528	      2.06333138	    -27.59288637	     27.30331675	     91.71131828	     87.69485685	      0.00000000	      0.00000000	     -0.22301331	    -27.37615944	     21.81991357	     80.37259633	     89.00119923	      0.00000000	      0.00000000
      0.02000000	    -89.36929005	     74.44791832	    -88.81340594	      0.84864476	      0.27607836	      0.57493256	     44.94267635	    -10.03753551	      0.00000000	     59.97312774	      1.04672854	     -5.00732195	      0.00000000	      0.00000000	     44.94267635	    -10.03753551	      0.00000000	     59.97312774	      1.04672854	     -5.00732195	      0.00000000	      0.00000000	    -24.93737953	      1.05237076	     -0.75476181	      2.04387958	    -27.57728124	     27.31481942	     91.71710792	     87.65136616	      0.00000000	      0.00000000	     -0.23123484	    -27.37378749	     21.83187217	     80.37396062	     88.99800955	      0.00000000	      0.00000000
      0.02500000	    -89.37918468	     74.35039380	    -88.79389695	      0.84862408	      0.27602402	      0.57514496	     44.95002889	    -10.02755417	      0.00000000	     59.97599241	      1.04677854	     -5.00516292	      0.00000000	      0.00000000	     44.95002889	    -10.02755417	      0.00000000	     59.97599241	      1.04677854	     -5.00516292	      0.00000000	      0.00000000	    -25.03908782	      1.05760343	     -0.80754603	      2.14608986	    -27.60636163	     27.46114942	     91.67228133	     87.69591440	      0.00000000	      0.00000000	     -0.28570465	    -27.35327417	     21.73455691	     80.41130011	     89.00449555	      0.00000000	      0.00000000
      0.03000000	    -89.38046680	     74.31227243	    -88.79030564	      0.84861153	      0.27598138	      0.57520933	     44.95732318	    -10.02013334	      0.00000000	     59.97894219	      1.04683002	     -5.00369123	      0.00000000	      0.00000000	     44.95732318	    -10.02013334	      0.00000000	     59.97894219	      1.04683002	     -5.00369123	      0.00000000	      0.00000000	    -25.07398744	      1.06421080	     -0.78579441	      2.10546895	    -27.60737841	     27.38575740	     91.69452274	     87.75183392	      0.00000000	      0.00000000	     -0.23984047	    -27.34227483	     21.78218934	     80.38261178	     88.99067746	      0.00000000	      0.00000000
      0.03500000	    -89.37208139	     74.45442906	    -88.81804065	      0.84863618	      0.27605595	      0.57491665	     44.96663418	    -10.01149761	      0.00000000	     59.98280051	      1.04689736	     -5.00196464	      0.00000000	      0.00000000	     44.96663418	    -10.01149761	      0.00000000	     59.98280051	      1.04689736	     -5.00196464	      0.00000000	      0.00000000	    -24.91484939	      1.04633100	     -0.75518570	      2.05498056	    -27.57580757	     27.33846293	     91.71240292	     87.64206706	      0.00000000	      0.00000000	     -0.23868766	    -27.35708233	     21.81281870	     80.37692087	     88.99893469	      0.00000000	      0.00000000
      0.04000000	    -89.36507666	     74.57630384	    -88.84268795	      0.84865235	      0.27611903	      0.57465362	     44.97432156	    -10.00637702	      0.00000000	     59.98613860	      1.04695562	     -5.00101641	      0.00000000	      0.00000000	     44.97432156	    -10.00637702	      0.00000000	     59.98613860	      1.04695562	     -5.00101641	      0.00000000	      0.00000000	    -24.77081164	      1.03041633	     -0.73795014	      2.06294853	    -27.57472488	     27.39076303	     91.67527425	     87.55114080	      0.00000000	      0.00000000	     -0.22902093	    -27.37421949	     21.85943917	     80.34677472	     89.00047807	      0.00000000	      0.00000000
      0.04500000	    -89.36485067	     74.43663541	    -88.82395507	      0.84864167	      0.27606558	      0.57492876	     44.97990760	    -10.00360549	      0.00000000	     59.98867405	      1.04699988	     -5.00053286	      0.00000000	      0.00000000	     44.97990760	    -10.00360549	      0.00000000	     59.98867405	      1.04699988	     -5.00053286	      0.00000000	      0.00000000	    -24.92743372	      1.04150480	     -0.75948400	      2.04977317	    -27.56168411	     27.32530273	     91.71228159	     87.66992149	      0.00000000	      0.00000000	     -0.24766687	    -27.36034244	     21.80112266	     80.38115424	     88.99314735	      0.00000000	      0.00000000
      0.05000000	    -89.36760285	     74.33936886	    -88.81501729	      0.84858924	      0.27603182	      0.57512897	     44.98415405	    -10.00208946	      0.00000000	     59.99069348	      1.04703512	     -5.00028730	      0.00000000	      0.00000000	     44.98415405	    -10.00208946	      0.00000000	     59.99069348	      1.04703512	     -5.00028730	      0.00000000	      0.00000000	    -25.02390607	      1.04662205	     -0.75819075	      2.04725372	    -27.56228222	     27.30760937	     91.71320135	     87.67371989	      0.00000000	      0.00000000	     -0.23392128	    -27.36634309	     21.82140065	     80.37652361	     88.99714384	      0.00000000	      0.00000000
      0.05500000	    -89.36503562	     74.45047654	    -88.83582559	      0.84860010	      0.27608077	      0.57486459	     44.98793583	    -10.00112169	      0.00000000	     59.99257632	      1.04706798	     -5.00014292	      0.00000000	      0.00000000	     44.98793583	    -10.00112169	      0.00000000	     59.99257632	      1.04706798	     -5.00014292	      0.00000000	      0.00000000	    -24.89635222	      1.03412791	     -0.73683584	      2.01213088	    -27.55823090	     27.29547387	     91.73284493	     87.64898123	      0.00000000	      0.00000000	     -0.25166130	    -27.36670228	     21.82319535	     80.38606746	     88.99085457	      0.00000000	      0.00000000
      0.06000000	    -89.37586092	     74.35451343	    -88.80351205	      0.84860261	      0.27604847	      0.57507860	     44.98966676	    -10.00080095	      0.00000000	     59.99347897	      1.04708374	     -5.00009800	      0.00000000	      0.00000000	     44.98966676	    -10.00080095	      0.00000000	     59.99347897	      1.04708374	     -5.00009800	      0.00000000	      0.00000000	    -25.00231639	      1.04352367	     -0.77438344	      2.06557984	    -27.55249955	     27.34054141	     91.69873586	     87.69974682	      0.00000000	      0.00000000	     -0.26360390	    -27.35935410	     21.77120387	     80.38643234	     88.99733126	      0.00000000	      0.00000000
